<svg width="147" height="81" viewBox="0 0 147 81" fill="none" xmlns="http://www.w3.org/2000/svg">
<path d="M26.5327 0.341676L14.0955 16.0352L26.5327 32H17.804L7.40202 18.0251V32H0.07538V0.341676H7.40202V14.407L17.8493 0.341676H26.5327ZM47.9279 19.9698C47.9279 20.8744 47.8675 21.8844 47.7469 23H31.6464C31.7067 24.4171 32.1891 25.5176 33.0937 26.3015C33.9982 27.0854 35.2193 27.4774 36.757 27.4774C38.8675 27.4774 40.2243 26.799 40.8273 25.4422H47.6113C47.2796 27.5829 46.1037 29.3317 44.0836 30.6884C42.0937 32.0151 39.6515 32.6784 36.757 32.6784C33.0484 32.6784 30.1238 31.6533 27.9831 29.603C25.8424 27.5528 24.772 24.7186 24.772 21.1005C24.772 17.5427 25.8424 14.7387 27.9831 12.6884C30.1238 10.608 32.9731 9.56782 36.5309 9.56782C39.9077 9.56782 42.6515 10.5326 44.762 12.4623C46.8726 14.3919 47.9279 16.8945 47.9279 19.9698ZM31.6464 18.7035H41.0987C41.0685 17.2563 40.6615 16.1407 39.8776 15.3568C39.0937 14.5728 37.963 14.1809 36.4856 14.1809C35.0082 14.1809 33.8324 14.603 32.958 15.4472C32.1138 16.2613 31.6766 17.3467 31.6464 18.7035ZM59.2107 32.6784C56.075 32.6784 53.5725 32 51.7032 30.6432C49.8338 29.2864 48.8992 27.5528 48.8992 25.4422H55.7735C55.7735 26.196 56.1052 26.8141 56.7685 27.2965C57.4318 27.7789 58.2911 28.0201 59.3464 28.0201C60.1002 28.0201 60.7032 27.8392 61.1554 27.4774C61.6379 27.1156 61.8791 26.6181 61.8791 25.9849C61.8791 24.9899 61.3514 24.3719 60.2961 24.1306L54.9595 22.7739C53.1806 22.3216 51.8238 21.5528 50.8891 20.4673C49.9544 19.3819 49.4871 18.0553 49.4871 16.4874C49.4871 14.4372 50.3313 12.7789 52.0198 11.5125C53.7082 10.2161 55.9695 9.56782 58.8037 9.56782C61.9394 9.56782 64.3364 10.1708 65.9946 11.3769C67.6831 12.5829 68.5273 14.2412 68.5273 16.3517H61.6982C61.6982 15.598 61.4268 15.01 60.8841 14.5879C60.3715 14.1658 59.6479 13.9548 58.7132 13.9548C57.9595 13.9548 57.3564 14.1206 56.9042 14.4522C56.4519 14.7839 56.2258 15.2211 56.2258 15.7638C56.2258 16.7286 56.8439 17.3769 58.0801 17.7085L63.2359 19.1105C64.9544 19.5628 66.2962 20.3166 67.261 21.3718C68.256 22.397 68.7534 23.6633 68.7534 25.1708C68.7534 27.4322 67.8941 29.2563 66.1756 30.6432C64.4871 32 62.1655 32.6784 59.2107 32.6784ZM85.5334 9.61304C90.8399 9.61304 93.4932 12.5829 93.4932 18.5226V32H86.5284V20.7839C86.5284 18.9146 86.2269 17.5578 85.6239 16.7136C85.051 15.8693 84.0711 15.4472 82.6842 15.4472C79.8801 15.4472 78.4781 17.1658 78.4781 20.603V32H71.5585V0.341676H78.4781V13.3668C79.7746 10.8643 82.1264 9.61304 85.5334 9.61304ZM106.221 32.5879C103.055 32.5879 100.553 31.5176 98.7133 29.3769C96.8741 27.2362 95.9545 24.4774 95.9545 21.1005C95.9545 17.7839 96.9043 15.0402 98.8038 12.8693C100.703 10.6985 103.206 9.61304 106.311 9.61304C107.849 9.61304 109.221 9.9447 110.427 10.608C111.633 11.2713 112.537 12.1759 113.14 13.3216V10.201H120.015V32H113.14V28.9246C112.537 30.01 111.603 30.8995 110.336 31.593C109.1 32.2563 107.728 32.5879 106.221 32.5879ZM108.211 26.8442C109.869 26.8442 111.151 26.3015 112.055 25.2161C112.96 24.1306 113.412 22.7588 113.412 21.1005C113.412 19.4723 112.96 18.1156 112.055 17.0301C111.151 15.9447 109.869 15.402 108.211 15.402C106.643 15.402 105.377 15.9296 104.412 16.9849C103.477 18.0402 103.01 19.412 103.01 21.1005C103.01 22.7889 103.477 24.1759 104.412 25.2613C105.377 26.3166 106.643 26.8442 108.211 26.8442ZM130.689 32L121.282 10.201H128.925L133.81 23.9045L138.694 10.201H146.383L136.93 32H130.689ZM24.9046 50.7839C24.9046 53.0754 24.3769 55.1256 23.3216 56.9347C22.2664 58.7136 20.8191 60.0553 18.9799 60.9598L24.5427 71H16.2211L11.2462 62.2261H7.40202V71H0.07538V39.3417H13.5528C16.8392 39.3417 19.5528 40.4271 21.6935 42.598C23.8342 44.7387 24.9046 47.4673 24.9046 50.7839ZM7.40202 45.3115V56.2563H12.4221C13.8995 56.2563 15.1055 55.7437 16.0402 54.7186C17.005 53.6935 17.4875 52.3819 17.4875 50.7839C17.4875 49.1859 17.005 47.8743 16.0402 46.8492C15.1055 45.8241 13.8995 45.3115 12.4221 45.3115H7.40202ZM36.0132 71.5879C32.8474 71.5879 30.3449 70.5176 28.5057 68.3769C26.6665 66.2362 25.7469 63.4774 25.7469 60.1005C25.7469 56.7839 26.6966 54.0402 28.5961 51.8693C30.4956 49.6985 32.9981 48.613 36.1037 48.613C37.6414 48.613 39.0132 48.9447 40.2193 49.608C41.4253 50.2713 42.3298 51.1759 42.9328 52.3216V49.201H49.8072V71H42.9328V67.9246C42.3298 69.01 41.3951 69.8995 40.1288 70.593C38.8926 71.2563 37.5208 71.5879 36.0132 71.5879ZM38.0032 65.8442C39.6615 65.8442 40.9429 65.3015 41.8474 64.2161C42.7519 63.1306 43.2042 61.7588 43.2042 60.1005C43.2042 58.4723 42.7519 57.1156 41.8474 56.0301C40.9429 54.9447 39.6615 54.402 38.0032 54.402C36.4353 54.402 35.169 54.9296 34.2042 55.9849C33.2695 57.0402 32.8022 58.412 32.8022 60.1005C32.8022 61.7889 33.2695 63.1759 34.2042 64.2613C35.169 65.3166 36.4353 65.8442 38.0032 65.8442ZM60.7078 46.0352C59.8937 46.8492 58.8686 47.2563 57.6324 47.2563C56.3962 47.2563 55.3711 46.8492 54.557 46.0352C53.7731 45.2211 53.3811 44.2261 53.3811 43.0502C53.3811 41.8442 53.7731 40.8341 54.557 40.0201C55.3711 39.206 56.3962 38.799 57.6324 38.799C58.8686 38.799 59.8937 39.2211 60.7078 40.0653C61.5218 40.8794 61.9289 41.8743 61.9289 43.0502C61.9289 44.2261 61.5218 45.2211 60.7078 46.0352ZM54.0143 80.3166C52.7178 80.3166 51.6173 80.1658 50.7128 79.8643V74.5276C51.2254 74.6482 51.7831 74.7085 52.3862 74.7085C53.562 74.7085 54.15 74.0151 54.15 72.6281V49.201H61.0696V73.4874C61.0696 75.7487 60.4666 77.4523 59.2605 78.598C58.0545 79.7437 56.3058 80.3166 54.0143 80.3166Z" fill="black"/>
</svg>
