<svg width="168" height="72" viewBox="0 0 168 72" fill="none" xmlns="http://www.w3.org/2000/svg">
<path d="M10.9016 9.18842C10.9016 10.1765 10.6156 10.9338 10.0435 11.4604C9.47795 11.9869 8.67512 12.2502 7.63501 12.2502C6.59491 12.2502 5.76608 11.9057 5.14852 11.2166C4.53745 10.5211 4.23192 9.58821 4.23192 8.41809V7.31623C4.23192 6.18512 4.5407 5.27503 5.15827 4.58596C5.78233 3.89039 6.60791 3.5426 7.63501 3.5426C8.69462 3.5426 9.50395 3.81238 10.063 4.35193C10.6286 4.88499 10.9113 5.63581 10.9113 6.60441H9.39019C9.39019 5.98035 9.24068 5.53505 8.94165 5.26853C8.64262 4.9955 8.20707 4.85898 7.63501 4.85898C7.03695 4.85898 6.56891 5.08001 6.23087 5.52205C5.89934 5.9641 5.73357 6.56866 5.73357 7.33573V8.4766C5.73357 9.24367 5.90259 9.84498 6.24062 10.2805C6.57866 10.7161 7.04346 10.9338 7.63501 10.9338C8.21357 10.9338 8.64912 10.8038 8.94165 10.5438C9.23417 10.2773 9.38044 9.82548 9.38044 9.18842H10.9016ZM13.4954 7.89154C13.4954 6.81243 13.2516 5.81133 12.764 4.88824C12.2765 3.95864 11.5874 3.21757 10.6968 2.66502C9.80623 2.10596 8.83113 1.82643 7.77153 1.82643C6.73792 1.82643 5.77583 2.09296 4.88524 2.62601C4.00115 3.15906 3.30558 3.89364 2.79853 4.82973C2.29148 5.76583 2.03795 6.78643 2.03795 7.89154C2.03795 8.99665 2.28823 10.0173 2.78878 10.9533C3.29583 11.8894 3.9914 12.6305 4.87549 13.1766C5.76608 13.7161 6.73142 13.9859 7.77153 13.9859C8.81163 13.9859 9.77698 13.7096 10.6676 13.1571C11.5647 12.6045 12.2602 11.8602 12.7543 10.9241C13.2483 9.988 13.4954 8.97715 13.4954 7.89154ZM0.848335 7.89154C0.848335 6.57841 1.15062 5.35953 1.75518 4.23492C2.36624 3.11031 3.20807 2.22622 4.28068 1.58266C5.35979 0.932592 6.5234 0.607559 7.77153 0.607559C9.01965 0.607559 10.18 0.932592 11.2526 1.58266C12.3252 2.22622 13.1638 3.11031 13.7684 4.23492C14.3794 5.35953 14.685 6.57841 14.685 7.89154C14.685 9.20467 14.3794 10.4235 13.7684 11.5482C13.1638 12.6728 12.3285 13.5634 11.2624 14.2199C10.1963 14.87 9.03265 15.195 7.77153 15.195C6.5169 15.195 5.35329 14.87 4.28068 14.2199C3.21457 13.5699 2.37599 12.6825 1.76493 11.5579C1.15387 10.4333 0.848335 9.21117 0.848335 7.89154ZM26.1326 8.86664L24.5237 10.5731V15H22.0567V0.802579H24.5237V7.4625L25.8888 5.77558L30.0428 0.802579H33.0266L27.7513 7.09196L33.3288 15H30.4035L26.1326 8.86664ZM42.953 8.66187H37.122V13.0303H43.9379V15H34.655V0.802579H43.8696V2.79178H37.122V6.71167H42.953V8.66187ZM53.3671 11.3434C53.3671 10.7193 53.1461 10.2383 52.704 9.90024C52.2685 9.56221 51.4787 9.22092 50.3345 8.87639C49.1904 8.53185 48.2803 8.14831 47.6043 7.72577C46.3106 6.91319 45.6638 5.85358 45.6638 4.54695C45.6638 3.40284 46.1286 2.46024 47.0582 1.71917C47.9943 0.978096 49.2067 0.607559 50.6953 0.607559C51.6834 0.607559 52.5643 0.789577 53.3378 1.15361C54.1114 1.51765 54.7192 2.0377 55.1613 2.71377C55.6033 3.38334 55.8243 4.12766 55.8243 4.94674H53.3671C53.3671 4.20567 53.1331 3.62711 52.665 3.21107C52.2035 2.78853 51.5404 2.57726 50.6758 2.57726C49.8697 2.57726 49.2424 2.74952 48.7939 3.09406C48.3518 3.43859 48.1308 3.91964 48.1308 4.5372C48.1308 5.05725 48.3713 5.4928 48.8524 5.84383C49.3334 6.18837 50.1265 6.5264 51.2316 6.85793C52.3367 7.18297 53.2241 7.55675 53.8936 7.9793C54.5632 8.39534 55.054 8.87639 55.366 9.42244C55.6781 9.962 55.8341 10.5958 55.8341 11.3239C55.8341 12.507 55.379 13.4496 54.469 14.1517C53.5654 14.8472 52.3367 15.195 50.7831 15.195C49.756 15.195 48.8101 15.0065 47.9456 14.6295C47.0875 14.2459 46.4179 13.7194 45.9368 13.0498C45.4623 12.3802 45.225 11.6002 45.225 10.7096H47.692C47.692 11.5157 47.9586 12.1397 48.4916 12.5818C49.0247 13.0238 49.7885 13.2448 50.7831 13.2448C51.6412 13.2448 52.2847 13.0726 52.7138 12.728C53.1493 12.377 53.3671 11.9154 53.3671 11.3434ZM69.2709 15H66.8137V8.69112H60.4658V15H57.9988V0.802579H60.4658V6.71167H66.8137V0.802579H69.2709V15ZM80.3188 11.6944H74.8192L73.6686 15H71.1041L76.4672 0.802579H78.6806L84.0534 15H81.4792L80.3188 11.6944ZM75.5116 9.70522H79.6265L77.569 3.81563L75.5116 9.70522ZM89.9137 11.9089L93.5216 0.802579H96.2324L91.1229 15H88.7339L83.6439 0.802579H86.3449L89.9137 11.9089ZM108.031 9.5297H105.281V15H102.814V0.802579H107.807C109.445 0.802579 110.709 1.16987 111.6 1.90444C112.491 2.63901 112.936 3.70187 112.936 5.09301C112.936 6.0421 112.705 6.83843 112.243 7.482C111.788 8.11906 111.151 8.60986 110.332 8.95439L113.521 14.8732V15H110.878L108.031 9.5297ZM105.281 7.55025H107.817C108.649 7.55025 109.299 7.34223 109.767 6.92619C110.235 6.50365 110.469 5.92834 110.469 5.20027C110.469 4.43969 110.251 3.85138 109.815 3.43534C109.386 3.0193 108.743 2.80478 107.885 2.79178H105.281V7.55025ZM123.223 11.6944H117.724L116.573 15H114.008L119.371 0.802579H121.585L126.958 15H124.383L123.223 11.6944ZM118.416 9.70522H122.531L120.473 3.81563L118.416 9.70522ZM134.388 0.802579H136.845V10.7583C136.845 12.117 136.419 13.1961 135.568 13.9956C134.723 14.7952 133.605 15.195 132.213 15.195C130.731 15.195 129.587 14.8212 128.781 14.0737C127.975 13.3261 127.572 12.286 127.572 10.9533H130.029C130.029 11.7074 130.215 12.2762 130.585 12.6598C130.962 13.0368 131.505 13.2253 132.213 13.2253C132.877 13.2253 133.403 13.0076 133.793 12.572C134.19 12.13 134.388 11.5222 134.388 10.7486V0.802579ZM149.014 9.91974H143.895V8.00855H149.014V9.91974ZM1.44314 43V28.8026H5.63606C6.89069 28.8026 8.0023 29.0821 8.9709 29.6412C9.946 30.2002 10.7001 30.9933 11.2331 32.0204C11.7662 33.0475 12.0327 34.2241 12.0327 35.5503V36.2621C12.0327 37.6077 11.7629 38.7908 11.2234 39.8114C10.6903 40.832 9.92649 41.6186 8.93189 42.1712C7.9438 42.7237 6.80943 43 5.5288 43H1.44314ZM3.91014 30.7918V41.0303H5.51905C6.81268 41.0303 7.80403 40.6273 8.4931 39.8212C9.18867 39.0086 9.54296 37.845 9.55596 36.3303V35.5405C9.55596 33.9998 9.22117 32.8232 8.55161 32.0106C7.88204 31.1981 6.91019 30.7918 5.63606 30.7918H3.91014ZM17.0935 43H14.6362V28.8026H17.0935V43ZM31.0081 41.1571C30.4946 41.8266 29.7827 42.3337 28.8726 42.6782C27.9625 43.0228 26.9289 43.195 25.7718 43.195C24.5822 43.195 23.5291 42.9252 22.6125 42.3857C21.6959 41.8461 20.9874 41.0758 20.4868 40.0747C19.9928 39.0671 19.736 37.8937 19.7165 36.5546V35.443C19.7165 33.2978 20.23 31.6239 21.2571 30.4212C22.2842 29.2121 23.7176 28.6076 25.5573 28.6076C27.137 28.6076 28.3916 28.9976 29.3212 29.7777C30.2508 30.5578 30.8098 31.6824 30.9984 33.1515H28.5801C28.3071 31.4418 27.3157 30.587 25.6061 30.587C24.501 30.587 23.6591 30.9868 23.0806 31.7864C22.5085 32.5795 22.2127 33.7463 22.1932 35.287V36.3791C22.1932 37.9132 22.515 39.1061 23.1586 39.9577C23.8086 40.8028 24.709 41.2253 25.8596 41.2253C27.1207 41.2253 28.0178 40.9393 28.5509 40.3672V37.5882H25.6256V35.716H31.0081V41.1571ZM36.3224 43H33.8651V28.8026H36.3224V43ZM49.3204 30.7918H44.8935V43H42.446V30.7918H38.0581V28.8026H49.3204V30.7918ZM57.9696 39.6944H52.47L51.3194 43H48.7549L54.1179 28.8026H56.3314L61.7042 43H59.1299L57.9696 39.6944ZM53.1623 37.7052H57.2772L55.2198 31.8156L53.1623 37.7052ZM65.7898 41.0303H72.2352V43H63.3228V28.8026H65.7898V41.0303ZM81.5669 37.7247V43H79.0999V28.8026H84.5312C86.1174 28.8026 87.3752 29.2154 88.3048 30.041C89.2409 30.8665 89.709 31.9586 89.709 33.3173C89.709 34.7084 89.2507 35.7908 88.3341 36.5644C87.424 37.3379 86.1466 37.7247 84.502 37.7247H81.5669ZM81.5669 35.7453H84.5312C85.4088 35.7453 86.0784 35.5405 86.5399 35.131C87.0015 34.7149 87.2322 34.1169 87.2322 33.3368C87.2322 32.5697 86.9982 31.9586 86.5302 31.5036C86.0621 31.0421 85.4186 30.8048 84.5995 30.7918H81.5669V35.7453ZM97.0905 37.5297H94.3407V43H91.8737V28.8026H96.8662C98.5044 28.8026 99.7687 29.1699 100.659 29.9044C101.55 30.639 101.995 31.7019 101.995 33.093C101.995 34.0421 101.764 34.8384 101.303 35.482C100.848 36.1191 100.211 36.6099 99.3917 36.9544L102.58 42.8732V43H99.9378L97.0905 37.5297ZM94.3407 35.5503H96.876C97.708 35.5503 98.3581 35.3422 98.8261 34.9262C99.2942 34.5036 99.5282 33.9283 99.5282 33.2003C99.5282 32.4397 99.3104 31.8514 98.8749 31.4353C98.4459 31.0193 97.8023 30.8048 96.9442 30.7918H94.3407V35.5503ZM115.666 36.2718C115.666 37.663 115.426 38.8851 114.945 39.9382C114.463 40.9848 113.774 41.7909 112.877 42.3564C111.987 42.9155 110.96 43.195 109.796 43.195C108.645 43.195 107.618 42.9155 106.715 42.3564C105.818 41.7909 105.122 40.988 104.628 39.9479C104.14 38.9078 103.893 37.7085 103.887 36.3498V35.5503C103.887 34.1656 104.131 32.9435 104.618 31.8839C105.112 30.8243 105.805 30.0149 106.695 29.4559C107.592 28.8903 108.619 28.6076 109.776 28.6076C110.934 28.6076 111.957 28.8871 112.848 29.4461C113.745 29.9987 114.437 30.7983 114.925 31.8449C115.413 32.885 115.66 34.0974 115.666 35.482V36.2718ZM113.199 35.5308C113.199 33.9576 112.9 32.7517 112.302 31.9131C111.71 31.0746 110.869 30.6553 109.776 30.6553C108.71 30.6553 107.875 31.0746 107.27 31.9131C106.672 32.7452 106.367 33.9251 106.354 35.4527V36.2718C106.354 37.832 106.656 39.0379 107.261 39.8894C107.872 40.741 108.717 41.1668 109.796 41.1668C110.888 41.1668 111.727 40.7508 112.312 39.9187C112.903 39.0866 113.199 37.871 113.199 36.2718V35.5308ZM118.123 43V28.8026H122.316C123.571 28.8026 124.682 29.0821 125.651 29.6412C126.626 30.2002 127.38 30.9933 127.913 32.0204C128.446 33.0475 128.713 34.2241 128.713 35.5503V36.2621C128.713 37.6077 128.443 38.7908 127.904 39.8114C127.371 40.832 126.607 41.6186 125.612 42.1712C124.624 42.7237 123.49 43 122.209 43H118.123ZM120.59 30.7918V41.0303H122.199C123.493 41.0303 124.484 40.6273 125.173 39.8212C125.869 39.0086 126.223 37.845 126.236 36.3303V35.5405C126.236 33.9998 125.901 32.8232 125.232 32.0106C124.562 31.1981 123.59 30.7918 122.316 30.7918H120.59ZM141.555 28.8026V38.2903C141.555 39.7984 141.071 40.9945 140.102 41.8786C139.14 42.7562 137.856 43.195 136.25 43.195C134.625 43.195 133.335 42.7627 132.379 41.8981C131.424 41.0271 130.946 39.8212 130.946 38.2805V28.8026H133.403V38.3C133.403 39.2491 133.644 39.9739 134.125 40.4745C134.606 40.975 135.314 41.2253 136.25 41.2253C138.149 41.2253 139.098 40.2242 139.098 38.222V28.8026H141.555ZM155.031 38.378C154.888 39.8927 154.329 41.0758 153.354 41.9274C152.379 42.7725 151.082 43.195 149.463 43.195C148.332 43.195 147.334 42.9285 146.469 42.3954C145.611 41.8559 144.948 41.0921 144.48 40.104C144.012 39.1159 143.768 37.9685 143.749 36.6619V35.3357C143.749 33.9966 143.986 32.8167 144.461 31.7961C144.935 30.7755 145.615 29.9889 146.499 29.4364C147.389 28.8838 148.416 28.6076 149.58 28.6076C151.147 28.6076 152.408 29.0334 153.363 29.8849C154.319 30.7365 154.875 31.9391 155.031 33.4928H152.574C152.457 32.4722 152.157 31.7376 151.676 31.2891C151.202 30.834 150.503 30.6065 149.58 30.6065C148.507 30.6065 147.682 30.9998 147.103 31.7864C146.531 32.5665 146.239 33.7138 146.226 35.2285V36.4863C146.226 38.0205 146.499 39.1906 147.045 39.9967C147.597 40.8028 148.403 41.2058 149.463 41.2058C150.432 41.2058 151.16 40.988 151.647 40.5525C152.135 40.117 152.444 39.3921 152.574 38.378H155.031ZM167.21 30.7918H162.783V43H160.335V30.7918H155.947V28.8026H167.21V30.7918ZM1.44314 71V56.8026H5.63606C6.89069 56.8026 8.0023 57.0821 8.9709 57.6412C9.946 58.2002 10.7001 58.9933 11.2331 60.0204C11.7662 61.0475 12.0327 62.2241 12.0327 63.5503V64.2621C12.0327 65.6077 11.7629 66.7908 11.2234 67.8114C10.6903 68.832 9.92649 69.6186 8.93189 70.1712C7.9438 70.7237 6.80943 71 5.5288 71H1.44314ZM3.91014 58.7918V69.0303H5.51905C6.81268 69.0303 7.80403 68.6273 8.4931 67.8212C9.18867 67.0086 9.54296 65.845 9.55596 64.3303V63.5405C9.55596 61.9998 9.22117 60.8232 8.55161 60.0106C7.88204 59.1981 6.91019 58.7918 5.63606 58.7918H3.91014ZM22.788 64.6619H16.9569V69.0303H23.7729V71H14.49V56.8026H23.7046V58.7918H16.9569V62.7117H22.788V64.6619ZM33.2021 67.3434C33.2021 66.7193 32.9811 66.2383 32.539 65.9002C32.1035 65.5622 31.3136 65.2209 30.1695 64.8764C29.0254 64.5319 28.1153 64.1483 27.4392 63.7258C26.1456 62.9132 25.4988 61.8536 25.4988 60.547C25.4988 59.4028 25.9636 58.4602 26.8932 57.7192C27.8293 56.9781 29.0417 56.6076 30.5303 56.6076C31.5184 56.6076 32.3992 56.7896 33.1728 57.1536C33.9464 57.5177 34.5542 58.0377 34.9963 58.7138C35.4383 59.3833 35.6593 60.1277 35.6593 60.9467H33.2021C33.2021 60.2057 32.9681 59.6271 32.5 59.2111C32.0385 58.7885 31.3754 58.5773 30.5108 58.5773C29.7047 58.5773 29.0774 58.7495 28.6289 59.0941C28.1868 59.4386 27.9658 59.9196 27.9658 60.5372C27.9658 61.0573 28.2063 61.4928 28.6874 61.8438C29.1684 62.1884 29.9615 62.5264 31.0666 62.8579C32.1717 63.183 33.0591 63.5568 33.7286 63.9793C34.3982 64.3953 34.889 64.8764 35.201 65.4224C35.5131 65.962 35.6691 66.5958 35.6691 67.3239C35.6691 68.507 35.214 69.4496 34.3039 70.1517C33.4003 70.8472 32.1717 71.195 30.6181 71.195C29.591 71.195 28.6451 71.0065 27.7805 70.6295C26.9224 70.2459 26.2529 69.7194 25.7718 69.0498C25.2973 68.3802 25.06 67.6002 25.06 66.7096H27.527C27.527 67.5157 27.7935 68.1397 28.3266 68.5818C28.8596 69.0238 29.6235 69.2448 30.6181 69.2448C31.4762 69.2448 32.1197 69.0726 32.5488 68.728C32.9843 68.377 33.2021 67.9154 33.2021 67.3434ZM40.4373 71H37.9801V56.8026H40.4373V71ZM54.3519 69.1571C53.8384 69.8266 53.1266 70.3337 52.2165 70.6782C51.3064 71.0228 50.2728 71.195 49.1157 71.195C47.926 71.195 46.8729 70.9252 45.9564 70.3857C45.0398 69.8461 44.3312 69.0758 43.8306 68.0747C43.3366 67.0671 43.0798 65.8937 43.0603 64.5546V63.443C43.0603 61.2978 43.5739 59.6239 44.601 58.4212C45.6281 57.2121 47.0615 56.6076 48.9011 56.6076C50.4808 56.6076 51.7354 56.9976 52.665 57.7777C53.5946 58.5578 54.1537 59.6824 54.3422 61.1515H51.9239C51.6509 59.4418 50.6596 58.587 48.9499 58.587C47.8448 58.587 47.003 58.9868 46.4244 59.7864C45.8523 60.5795 45.5566 61.7463 45.5371 63.287V64.3791C45.5371 65.9132 45.8588 67.1061 46.5024 67.9577C47.1525 68.8028 48.0528 69.2253 49.2034 69.2253C50.4646 69.2253 51.3616 68.9393 51.8947 68.3672V65.5882H48.9694V63.716H54.3519V69.1571ZM68.3251 71H65.8581L59.5297 60.9272V71H57.0627V56.8026H59.5297L65.8776 66.9143V56.8026H68.3251V71ZM79.5387 64.6619H73.7076V69.0303H80.5236V71H71.2406V56.8026H80.4553V58.7918H73.7076V62.7117H79.5387V64.6619ZM87.749 65.5297H84.9993V71H82.5323V56.8026H87.5248C89.1629 56.8026 90.4273 57.1699 91.3179 57.9044C92.2085 58.639 92.6538 59.7019 92.6538 61.093C92.6538 62.0421 92.423 62.8384 91.9615 63.482C91.5064 64.1191 90.8693 64.6099 90.0503 64.9544L93.2388 70.8732V71H90.5963L87.749 65.5297ZM84.9993 63.5503H87.5345C88.3666 63.5503 89.0167 63.3422 89.4847 62.9262C89.9528 62.5036 90.1868 61.9283 90.1868 61.2003C90.1868 60.4397 89.969 59.8514 89.5335 59.4353C89.1044 59.0193 88.4609 58.8048 87.6028 58.7918H84.9993V63.5503Z" fill="black"/>
</svg>
